{
	"asset":{
		"generator":"Khronos glTF Blender I/O v3.6.27",
		"version":"2.0"
	},
	"extensionsUsed":[
		"KHR_materials_specular",
		"KHR_materials_ior"
	],
	"scene":0,
	"scenes":[
		{
			"name":"Scene",
			"nodes":[
				0
			]
		}
	],
	"nodes":[
		{
			"mesh":0,
			"name":"roadTile_019",
			"translation":[
				0.0012697428464889526,
				6.4373016357421875e-06,
				0.0012632757425308228
			]
		}
	],
	"materials":[
		{
			"doubleSided":true,
			"extensions":{
				"KHR_materials_specular":{
					"specularColorFactor":[
						0.7825480438613254,
						0.7825480438613257,
						0.7825480438613249
					]
				},
				"KHR_materials_ior":{
					"ior":1.4500000476837158
				}
			},
			"name":"Grass.151",
			"pbrMetallicRoughness":{
				"baseColorFactor":[
					0.5411760210990906,
					0.7098039984703064,
					0.2862749993801117,
					1
				],
				"metallicFactor":0
			}
		},
		{
			"doubleSided":true,
			"extensions":{
				"KHR_materials_specular":{
					"specularColorFactor":[
						0.7825480438613255,
						0.7825480438613255,
						0.7825480438613255
					]
				},
				"KHR_materials_ior":{
					"ior":1.4500000476837158
				}
			},
			"name":"Alternate_Dirt.021",
			"pbrMetallicRoughness":{
				"baseColorFactor":[
					0.7215690016746521,
					0.564706027507782,
					0.3960779905319214,
					1
				],
				"metallicFactor":0
			}
		}
	],
	"meshes":[
		{
			"name":"roadTile_019.003",
			"primitives":[
				{
					"attributes":{
						"POSITION":0,
						"NORMAL":1,
						"TEXCOORD_0":2
					},
					"indices":3,
					"material":0
				},
				{
					"attributes":{
						"POSITION":4,
						"NORMAL":5,
						"TEXCOORD_0":6
					},
					"indices":7,
					"material":1
				}
			]
		}
	],
	"accessors":[
		{
			"bufferView":0,
			"componentType":5126,
			"count":114,
			"max":[
				0.4042865037918091,
				2.5308897495269775,
				0.46682995557785034
			],
			"min":[
				-0.4042865037918091,
				0.6515100002288818,
				-0.4668300747871399
			],
			"type":"VEC3"
		},
		{
			"bufferView":1,
			"componentType":5126,
			"count":114,
			"type":"VEC3"
		},
		{
			"bufferView":2,
			"componentType":5126,
			"count":114,
			"type":"VEC2"
		},
		{
			"bufferView":3,
			"componentType":5123,
			"count":180,
			"type":"SCALAR"
		},
		{
			"bufferView":4,
			"componentType":5126,
			"count":20,
			"max":[
				0.09230449795722961,
				0.6515100002288818,
				0.09230400621891022
			],
			"min":[
				-0.09230449795722961,
				0,
				-0.09230400621891022
			],
			"type":"VEC3"
		},
		{
			"bufferView":5,
			"componentType":5126,
			"count":20,
			"type":"VEC3"
		},
		{
			"bufferView":6,
			"componentType":5126,
			"count":20,
			"type":"VEC2"
		},
		{
			"bufferView":7,
			"componentType":5123,
			"count":30,
			"type":"SCALAR"
		}
	],
	"bufferViews":[
		{
			"buffer":0,
			"byteLength":1368,
			"byteOffset":0,
			"target":34962
		},
		{
			"buffer":0,
			"byteLength":1368,
			"byteOffset":1368,
			"target":34962
		},
		{
			"buffer":0,
			"byteLength":912,
			"byteOffset":2736,
			"target":34962
		},
		{
			"buffer":0,
			"byteLength":360,
			"byteOffset":3648,
			"target":34963
		},
		{
			"buffer":0,
			"byteLength":240,
			"byteOffset":4008,
			"target":34962
		},
		{
			"buffer":0,
			"byteLength":240,
			"byteOffset":4248,
			"target":34962
		},
		{
			"buffer":0,
			"byteLength":160,
			"byteOffset":4488,
			"target":34962
		},
		{
			"buffer":0,
			"byteLength":60,
			"byteOffset":4648,
			"target":34963
		}
	],
	"buffers":[
		{
			"byteLength":4708,
			"uri":"data:application/octet-stream;base64,"
		}
	]
}
