{
	"asset":{
		"generator":"Khronos glTF Blender I/O v3.6.27",
		"version":"2.0"
	},
	"extensionsUsed":[
		"KHR_materials_specular",
		"KHR_materials_ior"
	],
	"scene":0,
	"scenes":[
		{
			"name":"Scene",
			"nodes":[
				0
			]
		}
	],
	"nodes":[
		{
			"mesh":0,
			"name":"roadTile_025",
			"translation":[
				1.5,
				0,
				-1.5
			]
		}
	],
	"materials":[
		{
			"doubleSided":true,
			"extensions":{
				"KHR_materials_specular":{
					"specularColorFactor":[
						0.7825480438613255,
						0.7825480438613255,
						0.7825480438613255
					]
				},
				"KHR_materials_ior":{
					"ior":1.4500000476837158
				}
			},
			"name":"Grass.148",
			"pbrMetallicRoughness":{
				"baseColorFactor":[
					0.5411760210990906,
					0.7098039984703064,
					0.2862749993801117,
					1
				],
				"metallicFactor":0
			}
		},
		{
			"doubleSided":true,
			"extensions":{
				"KHR_materials_specular":{
					"specularColorFactor":[
						0.7825480438613255,
						0.7825480438613255,
						0.7825480438613255
					]
				},
				"KHR_materials_ior":{
					"ior":1.4500000476837158
				}
			},
			"name":"Stone.280",
			"pbrMetallicRoughness":{
				"baseColorFactor":[
					0.8470590114593506,
					0.8274509906768799,
					0.749019980430603,
					1
				],
				"metallicFactor":0
			}
		},
		{
			"doubleSided":true,
			"extensions":{
				"KHR_materials_specular":{
					"specularColorFactor":[
						0.7825480438613255,
						0.7825480438613255,
						0.7825480438613255
					]
				},
				"KHR_materials_ior":{
					"ior":1.4500000476837158
				}
			},
			"name":"Asphalt.227",
			"pbrMetallicRoughness":{
				"baseColorFactor":[
					0.4117650091648102,
					0.4117650091648102,
					0.4117650091648102,
					1
				],
				"metallicFactor":0
			}
		},
		{
			"doubleSided":true,
			"extensions":{
				"KHR_materials_specular":{
					"specularColorFactor":[
						0.7825480438613255,
						0.7825480438613255,
						0.7825480438613255
					]
				},
				"KHR_materials_ior":{
					"ior":1.4500000476837158
				}
			},
			"name":"White.007",
			"pbrMetallicRoughness":{
				"metallicFactor":0
			}
		}
	],
	"meshes":[
		{
			"name":"roadTile_025.004",
			"primitives":[
				{
					"attributes":{
						"POSITION":0,
						"NORMAL":1,
						"TEXCOORD_0":2
					},
					"indices":3,
					"material":0
				},
				{
					"attributes":{
						"POSITION":4,
						"NORMAL":5,
						"TEXCOORD_0":6
					},
					"indices":7,
					"material":1
				},
				{
					"attributes":{
						"POSITION":8,
						"NORMAL":9,
						"TEXCOORD_0":10
					},
					"indices":11,
					"material":2
				},
				{
					"attributes":{
						"POSITION":12,
						"NORMAL":13,
						"TEXCOORD_0":14
					},
					"indices":15,
					"material":3
				}
			]
		}
	],
	"accessors":[
		{
			"bufferView":0,
			"componentType":5126,
			"count":40,
			"max":[
				1.5,
				0.5500001311302185,
				1.5
			],
			"min":[
				-1.5,
				-1.1324685544877866e-07,
				-1.5
			],
			"type":"VEC3"
		},
		{
			"bufferView":1,
			"componentType":5126,
			"count":40,
			"type":"VEC3"
		},
		{
			"bufferView":2,
			"componentType":5126,
			"count":40,
			"type":"VEC2"
		},
		{
			"bufferView":3,
			"componentType":5123,
			"count":66,
			"type":"SCALAR"
		},
		{
			"bufferView":4,
			"componentType":5126,
			"count":50,
			"max":[
				1.5,
				0.630000114440918,
				1.125
			],
			"min":[
				-1.5,
				-8.493513803387032e-08,
				-1.125
			],
			"type":"VEC3"
		},
		{
			"bufferView":5,
			"componentType":5126,
			"count":50,
			"type":"VEC3"
		},
		{
			"bufferView":6,
			"componentType":5126,
			"count":50,
			"type":"VEC2"
		},
		{
			"bufferView":7,
			"componentType":5123,
			"count":102,
			"type":"SCALAR"
		},
		{
			"bufferView":8,
			"componentType":5126,
			"count":46,
			"max":[
				1.5,
				0.6000000834465027,
				0.75
			],
			"min":[
				-1.5,
				0.2999999523162842,
				-0.75
			],
			"type":"VEC3"
		},
		{
			"bufferView":9,
			"componentType":5126,
			"count":46,
			"type":"VEC3"
		},
		{
			"bufferView":10,
			"componentType":5126,
			"count":46,
			"type":"VEC2"
		},
		{
			"bufferView":11,
			"componentType":5123,
			"count":84,
			"type":"SCALAR"
		},
		{
			"bufferView":12,
			"componentType":5126,
			"count":16,
			"max":[
				0.375,
				0.6000000834465027,
				0.7499999403953552
			],
			"min":[
				-0.375,
				0.5999999642372131,
				-0.5625
			],
			"type":"VEC3"
		},
		{
			"bufferView":13,
			"componentType":5126,
			"count":16,
			"type":"VEC3"
		},
		{
			"bufferView":14,
			"componentType":5126,
			"count":16,
			"type":"VEC2"
		},
		{
			"bufferView":15,
			"componentType":5123,
			"count":24,
			"type":"SCALAR"
		}
	],
	"bufferViews":[
		{
			"buffer":0,
			"byteLength":480,
			"byteOffset":0,
			"target":34962
		},
		{
			"buffer":0,
			"byteLength":480,
			"byteOffset":480,
			"target":34962
		},
		{
			"buffer":0,
			"byteLength":320,
			"byteOffset":960,
			"target":34962
		},
		{
			"buffer":0,
			"byteLength":132,
			"byteOffset":1280,
			"target":34963
		},
		{
			"buffer":0,
			"byteLength":600,
			"byteOffset":1412,
			"target":34962
		},
		{
			"buffer":0,
			"byteLength":600,
			"byteOffset":2012,
			"target":34962
		},
		{
			"buffer":0,
			"byteLength":400,
			"byteOffset":2612,
			"target":34962
		},
		{
			"buffer":0,
			"byteLength":204,
			"byteOffset":3012,
			"target":34963
		},
		{
			"buffer":0,
			"byteLength":552,
			"byteOffset":3216,
			"target":34962
		},
		{
			"buffer":0,
			"byteLength":552,
			"byteOffset":3768,
			"target":34962
		},
		{
			"buffer":0,
			"byteLength":368,
			"byteOffset":4320,
			"target":34962
		},
		{
			"buffer":0,
			"byteLength":168,
			"byteOffset":4688,
			"target":34963
		},
		{
			"buffer":0,
			"byteLength":192,
			"byteOffset":4856,
			"target":34962
		},
		{
			"buffer":0,
			"byteLength":192,
			"byteOffset":5048,
			"target":34962
		},
		{
			"buffer":0,
			"byteLength":128,
			"byteOffset":5240,
			"target":34962
		},
		{
			"buffer":0,
			"byteLength":48,
			"byteOffset":5368,
			"target":34963
		}
	],
	"buffers":[
		{
			"byteLength":5416,
			"uri":"data:application/octet-stream;base64,"
		}
	]
}
