{
	"asset":{
		"generator":"Khronos glTF Blender I/O v3.6.27",
		"version":"2.0"
	},
	"extensionsUsed":[
		"KHR_materials_specular",
		"KHR_materials_ior"
	],
	"scene":0,
	"scenes":[
		{
			"name":"Scene",
			"nodes":[
				0
			]
		}
	],
	"nodes":[
		{
			"mesh":0,
			"name":"roadTile_020",
			"translation":[
				-0.0013684332370758057,
				0,
				0.004633456468582153
			]
		}
	],
	"materials":[
		{
			"doubleSided":true,
			"extensions":{
				"KHR_materials_specular":{
					"specularColorFactor":[
						0.7825480438613255,
						0.7825480438613255,
						0.7825480438613255
					]
				},
				"KHR_materials_ior":{
					"ior":1.4500000476837158
				}
			},
			"name":"Alternate_Dirt.020",
			"pbrMetallicRoughness":{
				"baseColorFactor":[
					0.7215690016746521,
					0.564706027507782,
					0.3960779905319214,
					1
				],
				"metallicFactor":0
			}
		},
		{
			"doubleSided":true,
			"extensions":{
				"KHR_materials_specular":{
					"specularColorFactor":[
						0.7825480438613254,
						0.7825480438613257,
						0.7825480438613249
					]
				},
				"KHR_materials_ior":{
					"ior":1.4500000476837158
				}
			},
			"name":"Grass.150",
			"pbrMetallicRoughness":{
				"baseColorFactor":[
					0.5411760210990906,
					0.7098039984703064,
					0.2862749993801117,
					1
				],
				"metallicFactor":0
			}
		}
	],
	"meshes":[
		{
			"name":"roadTile_020.005",
			"primitives":[
				{
					"attributes":{
						"POSITION":0,
						"NORMAL":1,
						"TEXCOORD_0":2
					},
					"indices":3,
					"material":0
				},
				{
					"attributes":{
						"POSITION":4,
						"NORMAL":5,
						"TEXCOORD_0":6
					},
					"indices":7,
					"material":1
				}
			]
		}
	],
	"accessors":[
		{
			"bufferView":0,
			"componentType":5126,
			"count":20,
			"max":[
				0.1569184958934784,
				0.5537830591201782,
				0.1569170206785202
			],
			"min":[
				-0.1569184958934784,
				-2.1083188528336905e-08,
				-0.1569170206785202
			],
			"type":"VEC3"
		},
		{
			"bufferView":1,
			"componentType":5126,
			"count":20,
			"type":"VEC3"
		},
		{
			"bufferView":2,
			"componentType":5126,
			"count":20,
			"type":"VEC2"
		},
		{
			"bufferView":3,
			"componentType":5123,
			"count":30,
			"type":"SCALAR"
		},
		{
			"bufferView":4,
			"componentType":5126,
			"count":102,
			"max":[
				0.8606985807418823,
				2.622880220413208,
				0.7453882694244385
			],
			"min":[
				-0.8607014417648315,
				0.5537829995155334,
				-0.7453919649124146
			],
			"type":"VEC3"
		},
		{
			"bufferView":5,
			"componentType":5126,
			"count":102,
			"type":"VEC3"
		},
		{
			"bufferView":6,
			"componentType":5126,
			"count":102,
			"type":"VEC2"
		},
		{
			"bufferView":7,
			"componentType":5123,
			"count":150,
			"type":"SCALAR"
		}
	],
	"bufferViews":[
		{
			"buffer":0,
			"byteLength":240,
			"byteOffset":0,
			"target":34962
		},
		{
			"buffer":0,
			"byteLength":240,
			"byteOffset":240,
			"target":34962
		},
		{
			"buffer":0,
			"byteLength":160,
			"byteOffset":480,
			"target":34962
		},
		{
			"buffer":0,
			"byteLength":60,
			"byteOffset":640,
			"target":34963
		},
		{
			"buffer":0,
			"byteLength":1224,
			"byteOffset":700,
			"target":34962
		},
		{
			"buffer":0,
			"byteLength":1224,
			"byteOffset":1924,
			"target":34962
		},
		{
			"buffer":0,
			"byteLength":816,
			"byteOffset":3148,
			"target":34962
		},
		{
			"buffer":0,
			"byteLength":300,
			"byteOffset":3964,
			"target":34963
		}
	],
	"buffers":[
		{
			"byteLength":4264,
			"uri":"data:application/octet-stream;base64,"
		}
	]
}
